<svg width="200" height="200" viewBox="0 0 200 200" fill="none" xmlns="http://www.w3.org/2000/svg">
<path d="M32.4112 146.272C36.2719 162.896 38.2023 171.208 45.1368 176.104C52.0713 181 61.9143 181 81.6003 181H116.4C136.086 181 145.929 181 152.863 176.104C159.798 171.208 161.728 162.896 165.589 146.272L170.605 124.672C176.157 100.765 178.933 88.8117 171.407 80.9058C163.881 73 149.726 73 121.416 73H76.5839C48.2737 73 34.1186 73 26.5927 80.9058C19.0667 88.8117 21.8428 100.765 27.3949 124.672L32.4112 146.272Z" fill="#FB4C4C" stroke="black" stroke-width="5"/>
<path d="M81.5 65.25C81.5 54.8947 89.8947 46.5 100.25 46.5C110.605 46.5 119 54.8947 119 65.25V73.5833H122.593C125.733 73.5833 128.699 73.5833 131.5 73.5959L131.5 65.25C131.5 47.9911 117.509 34 100.25 34C82.9911 34 69 47.9911 69 65.25L69 73.5959C71.8011 73.5833 74.7665 73.5833 77.9067 73.5833H81.5V65.25Z" fill="#F2EF8A" stroke="black" stroke-width="4" stroke-linecap="round"/>
<path d="M58.2917 121.822C58.7242 120.726 60.2758 120.726 60.7083 121.822L62.0483 125.22C62.1803 125.555 62.4453 125.82 62.78 125.952L66.1777 127.292C67.2741 127.724 67.2741 129.276 66.1777 129.708L62.78 131.048C62.4453 131.18 62.1803 131.445 62.0483 131.78L60.7083 135.178C60.2758 136.274 58.7242 136.274 58.2917 135.178L56.9517 131.78C56.8197 131.445 56.5547 131.18 56.22 131.048L52.8223 129.708C51.7259 129.276 51.7259 127.724 52.8223 127.292L56.22 125.952C56.5547 125.82 56.8197 125.555 56.9517 125.22L58.2917 121.822Z" fill="white"/>
<circle cx="59.5" cy="128.5" r="1" fill="#FB4C4C"/>
<path d="M99.2917 121.822C99.7242 120.726 101.276 120.726 101.708 121.822L103.048 125.22C103.18 125.555 103.445 125.82 103.78 125.952L107.178 127.292C108.274 127.724 108.274 129.276 107.178 129.708L103.78 131.048C103.445 131.18 103.18 131.445 103.048 131.78L101.708 135.178C101.276 136.274 99.7242 136.274 99.2917 135.178L97.9517 131.78C97.8197 131.445 97.5547 131.18 97.22 131.048L93.8223 129.708C92.7259 129.276 92.7259 127.724 93.8223 127.292L97.22 125.952C97.5547 125.82 97.8197 125.555 97.9517 125.22L99.2917 121.822Z" fill="white"/>
<circle cx="100.5" cy="128.5" r="1" fill="#FB4C4C"/>
<path d="M140.292 121.822C140.724 120.726 142.276 120.726 142.708 121.822L144.048 125.22C144.18 125.555 144.445 125.82 144.78 125.952L148.178 127.292C149.274 127.724 149.274 129.276 148.178 129.708L144.78 131.048C144.445 131.18 144.18 131.445 144.048 131.78L142.708 135.178C142.276 136.274 140.724 136.274 140.292 135.178L138.952 131.78C138.82 131.445 138.555 131.18 138.22 131.048L134.822 129.708C133.726 129.276 133.726 127.724 134.822 127.292L138.22 125.952C138.555 125.82 138.82 125.555 138.952 125.22L140.292 121.822Z" fill="white"/>
<circle cx="141.5" cy="128.5" r="1" fill="#FB4C4C"/>
<path d="M79.2917 150.822C79.7242 149.726 81.2758 149.726 81.7083 150.822L83.0483 154.22C83.1803 154.555 83.4453 154.82 83.78 154.952L87.1777 156.292C88.2741 156.724 88.2741 158.276 87.1777 158.708L83.78 160.048C83.4453 160.18 83.1803 160.445 83.0483 160.78L81.7083 164.178C81.2758 165.274 79.7242 165.274 79.2917 164.178L77.9517 160.78C77.8197 160.445 77.5547 160.18 77.22 160.048L73.8223 158.708C72.7259 158.276 72.7259 156.724 73.8223 156.292L77.22 154.952C77.5547 154.82 77.8197 154.555 77.9517 154.22L79.2917 150.822Z" stroke="white" stroke-width="2"/>
<circle cx="80.5" cy="157.5" r="1" fill="white"/>
<path d="M42.2917 93.8223C42.7242 92.7259 44.2758 92.7259 44.7083 93.8223L46.0483 97.22C46.1803 97.5547 46.4453 97.8197 46.78 97.9517L50.1777 99.2917C51.2741 99.7242 51.2741 101.276 50.1777 101.708L46.78 103.048C46.4453 103.18 46.1803 103.445 46.0483 103.78L44.7083 107.178C44.2758 108.274 42.7242 108.274 42.2917 107.178L40.9517 103.78C40.8197 103.445 40.5547 103.18 40.22 103.048L36.8223 101.708C35.7259 101.276 35.7259 99.7242 36.8223 99.2917L40.22 97.9517C40.5547 97.8197 40.8197 97.5547 40.9517 97.22L42.2917 93.8223Z" stroke="white" stroke-width="2"/>
<circle cx="43.5" cy="100.5" r="1" fill="white"/>
<path d="M157.292 93.8223C157.724 92.7259 159.276 92.7259 159.708 93.8223L161.048 97.22C161.18 97.5547 161.445 97.8197 161.78 97.9517L165.178 99.2917C166.274 99.7242 166.274 101.276 165.178 101.708L161.78 103.048C161.445 103.18 161.18 103.445 161.048 103.78L159.708 107.178C159.276 108.274 157.724 108.274 157.292 107.178L155.952 103.78C155.82 103.445 155.555 103.18 155.22 103.048L151.822 101.708C150.726 101.276 150.726 99.7242 151.822 99.2917L155.22 97.9517C155.555 97.8197 155.82 97.5547 155.952 97.22L157.292 93.8223Z" stroke="white" stroke-width="2"/>
<circle cx="158.5" cy="100.5" r="1" fill="white"/>
<path d="M120.292 150.822C120.724 149.726 122.276 149.726 122.708 150.822L124.048 154.22C124.18 154.555 124.445 154.82 124.78 154.952L128.178 156.292C129.274 156.724 129.274 158.276 128.178 158.708L124.78 160.048C124.445 160.18 124.18 160.445 124.048 160.78L122.708 164.178C122.276 165.274 120.724 165.274 120.292 164.178L118.952 160.78C118.82 160.445 118.555 160.18 118.22 160.048L114.822 158.708C113.726 158.276 113.726 156.724 114.822 156.292L118.22 154.952C118.555 154.82 118.82 154.555 118.952 154.22L120.292 150.822Z" stroke="white" stroke-width="2"/>
<circle cx="121.5" cy="157.5" r="1" fill="white"/>
<path d="M79.2917 93.8223C79.7242 92.7259 81.2758 92.7259 81.7083 93.8223L83.0483 97.22C83.1803 97.5547 83.4453 97.8197 83.78 97.9517L87.1777 99.2917C88.2741 99.7242 88.2741 101.276 87.1777 101.708L83.78 103.048C83.4453 103.18 83.1803 103.445 83.0483 103.78L81.7083 107.178C81.2758 108.274 79.7242 108.274 79.2917 107.178L77.9517 103.78C77.8197 103.445 77.5547 103.18 77.22 103.048L73.8223 101.708C72.7259 101.276 72.7259 99.7242 73.8223 99.2917L77.22 97.9517C77.5547 97.8197 77.8197 97.5547 77.9517 97.22L79.2917 93.8223Z" stroke="white" stroke-width="2"/>
<circle cx="80.5" cy="100.5" r="1" fill="white"/>
<path d="M120.292 93.8223C120.724 92.7259 122.276 92.7259 122.708 93.8223L124.048 97.22C124.18 97.5547 124.445 97.8197 124.78 97.9517L128.178 99.2917C129.274 99.7242 129.274 101.276 128.178 101.708L124.78 103.048C124.445 103.18 124.18 103.445 124.048 103.78L122.708 107.178C122.276 108.274 120.724 108.274 120.292 107.178L118.952 103.78C118.82 103.445 118.555 103.18 118.22 103.048L114.822 101.708C113.726 101.276 113.726 99.7242 114.822 99.2917L118.22 97.9517C118.555 97.8197 118.82 97.5547 118.952 97.22L120.292 93.8223Z" stroke="white" stroke-width="2"/>
<circle cx="121.5" cy="100.5" r="1" fill="white"/>
</svg>
