<svg width="190" height="190" viewBox="0 0 190 190" fill="none" xmlns="http://www.w3.org/2000/svg">
<path fill-rule="evenodd" clip-rule="evenodd" d="M17.8195 94.0567C17.7364 95.4508 17.934 97.1419 18.3293 100.524L21.5014 127.663C22.933 139.911 29.4778 150.982 39.5185 158.141C46.9164 163.415 55.7757 166.25 64.8614 166.25H93.4713C102.557 166.25 111.416 163.415 118.814 158.141C125.175 153.606 130.133 147.5 133.276 140.521H150.417C166.812 140.521 180.104 127.229 180.104 110.833C180.104 94.4372 166.812 81.1457 150.417 81.1457H132.376C130.882 80.3182 129.235 79.723 127.48 79.411C126.104 79.1665 124.402 79.1665 120.997 79.1665H37.3358C33.9307 79.1665 32.2282 79.1665 30.8531 79.411C23.6451 80.6925 18.2556 86.7486 17.8195 94.0567ZM140.417 93.0207C140.46 93.3629 140.492 93.7084 140.513 94.0567C140.596 95.4508 140.399 97.1417 140.003 100.523L136.831 127.663C136.793 127.991 136.751 128.319 136.705 128.646H150.417C160.254 128.646 168.229 120.671 168.229 110.833C168.229 100.996 160.254 93.0207 150.417 93.0207H140.417Z" fill="white"/>
<path d="M18.3293 100.524L20.8124 100.234L20.8124 100.234L18.3293 100.524ZM17.8195 94.0567L15.324 93.9078L15.324 93.9078L17.8195 94.0567ZM21.5014 127.663L19.0183 127.953L19.0183 127.953L21.5014 127.663ZM39.5185 158.141L40.9698 156.105L40.9698 156.105L39.5185 158.141ZM118.814 158.141L117.363 156.105L117.363 156.105L118.814 158.141ZM133.276 140.521V138.021H131.66L130.997 139.494L133.276 140.521ZM132.376 81.1457L131.165 83.3328L131.73 83.6457H132.376V81.1457ZM127.48 79.411L127.917 76.9496L127.917 76.9496L127.48 79.411ZM30.8531 79.411L30.4155 76.9496L30.4155 76.9496L30.8531 79.411ZM140.417 93.0207V90.5207H137.584L137.937 93.332L140.417 93.0207ZM140.513 94.0567L143.009 93.9078L143.009 93.9078L140.513 94.0567ZM140.003 100.523L137.52 100.233L137.52 100.233L140.003 100.523ZM136.831 127.663L139.314 127.953L139.314 127.953L136.831 127.663ZM136.705 128.646L134.229 128.299L133.831 131.146H136.705V128.646ZM20.8124 100.234C20.4041 96.7407 20.2484 95.3232 20.3151 94.2056L15.324 93.9078C15.2243 95.5785 15.4639 97.543 15.8462 100.814L20.8124 100.234ZM23.9845 127.372L20.8124 100.234L15.8462 100.814L19.0183 127.953L23.9845 127.372ZM40.9698 156.105C31.5041 149.356 25.3341 138.919 23.9845 127.372L19.0183 127.953C20.5318 140.902 27.4514 152.608 38.0672 160.176L40.9698 156.105ZM64.8614 163.75C56.296 163.75 47.9441 161.077 40.9698 156.105L38.0672 160.176C45.8888 165.753 55.2554 168.75 64.8614 168.75V163.75ZM93.4713 163.75H64.8614V168.75H93.4713V163.75ZM117.363 156.105C110.389 161.077 102.037 163.75 93.4713 163.75V168.75C103.077 168.75 112.444 165.753 120.265 160.176L117.363 156.105ZM130.997 139.494C128.033 146.074 123.359 151.83 117.363 156.105L120.265 160.176C126.991 155.381 132.232 148.927 135.556 141.547L130.997 139.494ZM150.417 138.021H133.276V143.021H150.417V138.021ZM177.604 110.833C177.604 125.848 165.432 138.021 150.417 138.021V143.021C168.193 143.021 182.604 128.61 182.604 110.833H177.604ZM150.417 83.6457C165.432 83.6457 177.604 95.8179 177.604 110.833H182.604C182.604 93.0565 168.193 78.6457 150.417 78.6457V83.6457ZM132.376 83.6457H150.417V78.6457H132.376V83.6457ZM127.042 81.8724C128.522 82.1355 129.908 82.6368 131.165 83.3328L133.587 78.9586C131.856 77.9997 129.947 77.3106 127.917 76.9496L127.042 81.8724ZM120.997 81.6665C124.514 81.6665 125.94 81.6764 127.042 81.8724L127.917 76.9496C126.269 76.6566 124.29 76.6665 120.997 76.6665V81.6665ZM37.3358 81.6665H120.997V76.6665H37.3358V81.6665ZM31.2908 81.8724C32.393 81.6764 33.819 81.6665 37.3358 81.6665V76.6665C34.0424 76.6665 32.0633 76.6566 30.4155 76.9496L31.2908 81.8724ZM20.3151 94.2056C20.6823 88.0515 25.2208 82.9516 31.2908 81.8724L30.4155 76.9496C22.0694 78.4335 15.8289 85.4458 15.324 93.9078L20.3151 94.2056ZM137.937 93.332C137.973 93.6204 138 93.9117 138.018 94.2056L143.009 93.9078C142.985 93.5051 142.948 93.1055 142.898 92.7094L137.937 93.332ZM138.018 94.2056C138.084 95.3231 137.929 96.7405 137.52 100.233L142.486 100.814C142.869 97.5429 143.108 95.5784 143.009 93.9078L138.018 94.2056ZM137.52 100.233L134.348 127.372L139.314 127.953L142.486 100.814L137.52 100.233ZM134.348 127.372C134.312 127.682 134.272 127.991 134.229 128.299L139.181 128.992C139.229 128.647 139.274 128.3 139.314 127.953L134.348 127.372ZM136.705 131.146H150.417V126.146H136.705V131.146ZM150.417 131.146C161.635 131.146 170.729 122.051 170.729 110.833H165.729C165.729 119.29 158.873 126.146 150.417 126.146V131.146ZM170.729 110.833C170.729 99.6149 161.635 90.5207 150.417 90.5207V95.5207C158.873 95.5207 165.729 102.376 165.729 110.833H170.729ZM150.417 90.5207H140.417V95.5207H150.417V90.5207Z" fill="black"/>
<path fill-rule="evenodd" clip-rule="evenodd" d="M83.3677 11.635C85.6865 13.9538 85.6865 17.7132 83.3677 20.0319C81.3142 22.0855 81.3142 25.4149 83.3677 27.4684C90.0587 34.1594 90.0587 45.0076 83.3677 51.6986C81.049 54.0173 77.2896 54.0173 74.9708 51.6986C72.6521 49.3799 72.6521 45.6205 74.9708 43.3017C77.0243 41.2482 77.0243 37.9188 74.9708 35.8653C68.2798 29.1743 68.2798 18.326 74.9708 11.635C77.2896 9.31631 81.049 9.31631 83.3677 11.635Z" fill="#F2EF8A"/>
<path fill-rule="evenodd" clip-rule="evenodd" d="M47.7415 23.51C50.0603 25.8288 50.0603 29.5882 47.7415 31.9069L46.8223 32.8262C44.8965 34.7519 44.6799 37.8006 46.3139 39.9793C51.4937 46.8857 50.8069 56.5499 44.7025 62.6544L43.7832 63.5736C41.4645 65.8923 37.705 65.8923 35.3863 63.5736C33.0676 61.2549 33.0676 57.4955 35.3863 55.1767L36.3056 54.2575C38.2313 52.3317 38.448 49.283 36.8139 47.1043C31.6341 40.1979 32.3209 30.5337 38.4254 24.4293L39.3446 23.51C41.6634 21.1913 45.4228 21.1913 47.7415 23.51Z" fill="#F2EF8A"/>
<path fill-rule="evenodd" clip-rule="evenodd" d="M122.95 23.51C125.269 25.8288 125.269 29.5882 122.95 31.9069L122.031 32.8262C120.105 34.7519 119.888 37.8006 121.522 39.9793C126.702 46.8857 126.015 56.5499 119.911 62.6544L118.992 63.5736C116.673 65.8923 112.913 65.8923 110.595 63.5736C108.276 61.2549 108.276 57.4955 110.595 55.1767L111.514 54.2575C113.44 52.3317 113.656 49.283 112.022 47.1043C106.842 40.1979 107.529 30.5337 113.634 24.4293L114.553 23.51C116.872 21.1913 120.631 21.1913 122.95 23.51Z" fill="#F2EF8A"/>
<path fill-rule="evenodd" clip-rule="evenodd" d="M83.3677 11.635C85.6865 13.9538 85.6865 17.7132 83.3677 20.0319C81.3142 22.0855 81.3142 25.4149 83.3677 27.4684C90.0587 34.1594 90.0587 45.0076 83.3677 51.6986C81.049 54.0173 77.2896 54.0173 74.9708 51.6986C72.6521 49.3799 72.6521 45.6205 74.9708 43.3017C77.0243 41.2482 77.0243 37.9188 74.9708 35.8653C68.2798 29.1743 68.2798 18.326 74.9708 11.635C77.2896 9.31631 81.049 9.31631 83.3677 11.635Z" stroke="black" stroke-width="4" stroke-linecap="round" stroke-linejoin="round"/>
<path fill-rule="evenodd" clip-rule="evenodd" d="M47.7415 23.51C50.0603 25.8288 50.0603 29.5882 47.7415 31.9069L46.8223 32.8262C44.8965 34.7519 44.6799 37.8006 46.3139 39.9793C51.4937 46.8857 50.8069 56.5499 44.7025 62.6544L43.7832 63.5736C41.4645 65.8923 37.705 65.8923 35.3863 63.5736C33.0676 61.2549 33.0676 57.4955 35.3863 55.1767L36.3056 54.2575C38.2313 52.3317 38.448 49.283 36.8139 47.1043C31.6341 40.1979 32.3209 30.5337 38.4254 24.4293L39.3446 23.51C41.6634 21.1913 45.4228 21.1913 47.7415 23.51Z" stroke="black" stroke-width="4" stroke-linecap="round" stroke-linejoin="round"/>
<path fill-rule="evenodd" clip-rule="evenodd" d="M122.95 23.51C125.269 25.8288 125.269 29.5882 122.95 31.9069L122.031 32.8262C120.105 34.7519 119.888 37.8006 121.522 39.9793C126.702 46.8857 126.015 56.5499 119.911 62.6544L118.992 63.5736C116.673 65.8923 112.913 65.8923 110.595 63.5736C108.276 61.2549 108.276 57.4955 110.595 55.1767L111.514 54.2575C113.44 52.3317 113.656 49.283 112.022 47.1043C106.842 40.1979 107.529 30.5337 113.634 24.4293L114.553 23.51C116.872 21.1913 120.631 21.1913 122.95 23.51Z" stroke="black" stroke-width="4" stroke-linecap="round" stroke-linejoin="round"/>
<path d="M75.3744 166.25H82.8007C106.875 166.25 114 163.875 125.875 151.838C134.425 141.55 137.828 131.287 139.175 107.35H19C20.9 137.75 25.175 142.5 32.775 151.838C43.7 162.45 49.4 166.25 75.3744 166.25Z" fill="#FB4C4C" stroke="black" stroke-width="4"/>
</svg>
