<svg width="231" height="231" viewBox="0 0 231 231" fill="none" xmlns="http://www.w3.org/2000/svg">
<path d="M86.3012 77.5506L83.9054 78.2649L86.3012 77.5506C84.5416 71.6484 79.4745 67.1972 73.1993 65.686C70.8767 65.1266 68.1274 65.1269 63.5723 65.1274C63.4359 65.1274 63.2978 65.1274 63.1581 65.1274C63.0184 65.1274 62.8804 65.1274 62.7439 65.1274C58.1889 65.1269 55.4396 65.1266 53.117 65.686C46.8417 67.1972 41.7747 71.6484 40.015 77.5506C39.3651 79.7304 39.3657 82.2967 39.3666 86.3021C39.3667 86.4538 39.3667 86.6076 39.3667 86.7634L39.3667 144.171C39.3667 144.327 39.3667 144.481 39.3666 144.633C39.3657 148.638 39.3651 151.204 40.015 153.384C41.7747 159.286 46.8417 163.738 53.117 165.249C55.4396 165.808 58.1888 165.808 62.7439 165.807L63.1581 165.807L63.5723 165.807C68.1274 165.808 70.8767 165.808 73.1993 165.249C79.4745 163.738 84.5416 159.286 86.3012 153.384C86.9511 151.204 86.9505 148.638 86.9496 144.633C86.9496 144.481 86.9496 144.327 86.9496 144.171V122.643V108.291V86.7634C86.9496 86.6076 86.9496 86.4538 86.9496 86.3021C86.9505 82.2967 86.9511 79.7305 86.3012 77.5506ZM193.407 144.171V86.7634C193.407 86.6076 193.407 86.4538 193.407 86.3021C193.408 82.2967 193.408 79.7305 192.758 77.5506C190.999 71.6484 185.932 67.1972 179.656 65.686C177.334 65.1266 174.585 65.1269 170.029 65.1274L169.615 65.1274L169.201 65.1274C164.646 65.1269 161.897 65.1266 159.574 65.686C153.299 67.1972 148.232 71.6484 146.472 77.5506C145.822 79.7304 145.823 82.2967 145.824 86.302C145.824 86.4536 145.824 86.6074 145.824 86.7632V86.7634V108.291V122.643V144.171C145.824 144.327 145.824 144.481 145.824 144.633C145.823 148.638 145.822 151.204 146.472 153.384C148.232 159.286 153.299 163.738 159.574 165.249C161.897 165.808 164.646 165.808 169.201 165.807L169.615 165.807H169.615H169.615L170.03 165.807C174.585 165.808 177.334 165.808 179.656 165.249C185.932 163.738 190.999 159.286 192.758 153.384C193.408 151.204 193.408 148.638 193.407 144.633C193.407 144.481 193.407 144.327 193.407 144.171Z" fill="#FB4C4C" stroke="black" stroke-width="5"/>
<path d="M143.987 125.327H146.487V122.827V108.107V105.607H143.987H89.7068H87.2068V108.107V122.827V125.327H89.7068H143.987Z" fill="#F2EF8A" stroke="black" stroke-width="5"/>
<path d="M39.253 97.0674V93.9694L36.225 94.6238C25.637 96.9119 17.2856 105.138 17.2856 115.467C17.2856 125.797 25.637 134.023 36.225 136.311L39.253 136.965V133.867L39.253 97.0674ZM192.6 133.867V136.965L195.628 136.311C206.216 134.023 214.567 125.796 214.567 115.467C214.567 105.138 206.216 96.9123 195.628 94.6239L192.6 93.9695V97.0675V133.867Z" fill="white" stroke="black" stroke-width="5"/>
</svg>
