<svg width="200" height="39" viewBox="0 0 200 39" fill="none" xmlns="http://www.w3.org/2000/svg">
<path d="M74.13 30.83C71.71 30.83 69.67 30.39 68.01 29.51C66.37 28.61 65.13 27.35 64.29 25.73C63.45 24.09 63.03 22.18 63.03 20C63.03 17.76 63.48 15.82 64.38 14.18C65.3 12.54 66.62 11.27 68.34 10.37C70.06 9.47 72.12 9.02 74.52 9.02C76.06 9.02 77.41 9.22 78.57 9.62C79.75 10 80.78 10.55 81.66 11.27L80.16 14.9C79.52 14.44 78.92 14.08 78.36 13.82C77.8 13.54 77.22 13.35 76.62 13.25C76.02 13.13 75.33 13.07 74.55 13.07C72.35 13.07 70.69 13.67 69.57 14.87C68.47 16.05 67.92 17.77 67.92 20.03C67.92 22.27 68.44 23.97 69.48 25.13C70.52 26.29 72.15 26.87 74.37 26.87C75.11 26.87 75.87 26.8 76.65 26.66C77.43 26.52 78.2 26.31 78.96 26.03L78.12 27.83V22.13H73.47V18.8H81.99V29.18C80.93 29.7 79.7 30.11 78.3 30.41C76.92 30.69 75.53 30.83 74.13 30.83ZM92.9135 30.83C91.2935 30.83 89.8835 30.51 88.6835 29.87C87.5035 29.21 86.5835 28.29 85.9235 27.11C85.2835 25.93 84.9635 24.52 84.9635 22.88C84.9635 21.26 85.2835 19.86 85.9235 18.68C86.5835 17.5 87.5035 16.59 88.6835 15.95C89.8835 15.31 91.2935 14.99 92.9135 14.99C94.5335 14.99 95.9435 15.31 97.1435 15.95C98.3435 16.59 99.2635 17.5 99.9035 18.68C100.564 19.86 100.894 21.26 100.894 22.88C100.894 24.52 100.564 25.93 99.9035 27.11C99.2635 28.29 98.3435 29.21 97.1435 29.87C95.9435 30.51 94.5335 30.83 92.9135 30.83ZM92.9135 27.41C93.9535 27.41 94.7735 27.04 95.3735 26.3C95.9935 25.56 96.3035 24.42 96.3035 22.88C96.3035 21.34 95.9935 20.21 95.3735 19.49C94.7735 18.77 93.9535 18.41 92.9135 18.41C91.8735 18.41 91.0435 18.77 90.4235 19.49C89.8235 20.21 89.5235 21.34 89.5235 22.88C89.5235 24.42 89.8235 25.56 90.4235 26.3C91.0435 27.04 91.8735 27.41 92.9135 27.41ZM110.059 30.5L102.559 9.35H107.389L112.759 25.67H111.469L117.319 9.35H120.739L126.109 25.67H124.909L130.609 9.35H135.139L127.579 30.5H123.769L118.579 15.47H119.269L113.899 30.5H110.059ZM137.598 30.5V8.42H142.128V18.14H141.678C142.158 17.12 142.868 16.34 143.808 15.8C144.748 15.26 145.828 14.99 147.048 14.99C148.828 14.99 150.158 15.51 151.038 16.55C151.918 17.57 152.358 19.14 152.358 21.26V30.5H147.828V21.47C147.828 20.41 147.628 19.65 147.228 19.19C146.848 18.73 146.248 18.5 145.428 18.5C144.428 18.5 143.628 18.81 143.028 19.43C142.428 20.05 142.128 20.88 142.128 21.92V30.5H137.598ZM163.647 30.83C161.007 30.83 158.947 30.12 157.467 28.7C155.987 27.28 155.247 25.35 155.247 22.91C155.247 21.33 155.557 19.95 156.177 18.77C156.817 17.59 157.697 16.67 158.817 16.01C159.957 15.33 161.287 14.99 162.807 14.99C164.307 14.99 165.557 15.31 166.557 15.95C167.577 16.59 168.337 17.49 168.837 18.65C169.357 19.79 169.617 21.12 169.617 22.64V23.69H158.967V21.44H166.317L165.807 21.86C165.807 20.6 165.547 19.65 165.027 19.01C164.527 18.35 163.797 18.02 162.837 18.02C161.777 18.02 160.957 18.41 160.377 19.19C159.817 19.97 159.537 21.09 159.537 22.55V23.03C159.537 24.51 159.897 25.61 160.617 26.33C161.357 27.05 162.417 27.41 163.797 27.41C164.617 27.41 165.387 27.31 166.107 27.11C166.847 26.89 167.547 26.55 168.207 26.09L169.467 29.09C168.707 29.65 167.827 30.08 166.827 30.38C165.847 30.68 164.787 30.83 163.647 30.83ZM172.461 30.5V19.31C172.461 18.65 172.441 17.98 172.401 17.3C172.381 16.62 172.331 15.95 172.251 15.29H176.601L177.111 19.73H176.421C176.621 18.65 176.941 17.76 177.381 17.06C177.841 16.36 178.401 15.84 179.061 15.5C179.741 15.16 180.511 14.99 181.371 14.99C181.751 14.99 182.051 15.01 182.271 15.05C182.491 15.07 182.711 15.12 182.931 15.2L182.901 19.19C182.481 19.01 182.121 18.9 181.821 18.86C181.541 18.8 181.181 18.77 180.741 18.77C179.901 18.77 179.201 18.93 178.641 19.25C178.101 19.57 177.691 20.04 177.411 20.66C177.151 21.28 177.021 22.03 177.021 22.91V30.5H172.461ZM192.211 30.83C189.571 30.83 187.511 30.12 186.031 28.7C184.551 27.28 183.811 25.35 183.811 22.91C183.811 21.33 184.121 19.95 184.741 18.77C185.381 17.59 186.261 16.67 187.381 16.01C188.521 15.33 189.851 14.99 191.371 14.99C192.871 14.99 194.121 15.31 195.121 15.95C196.141 16.59 196.901 17.49 197.401 18.65C197.921 19.79 198.181 21.12 198.181 22.64V23.69H187.531V21.44H194.881L194.371 21.86C194.371 20.6 194.111 19.65 193.591 19.01C193.091 18.35 192.361 18.02 191.401 18.02C190.341 18.02 189.521 18.41 188.941 19.19C188.381 19.97 188.101 21.09 188.101 22.55V23.03C188.101 24.51 188.461 25.61 189.181 26.33C189.921 27.05 190.981 27.41 192.361 27.41C193.181 27.41 193.951 27.31 194.671 27.11C195.411 26.89 196.111 26.55 196.771 26.09L198.031 29.09C197.271 29.65 196.391 30.08 195.391 30.38C194.411 30.68 193.351 30.83 192.211 30.83Z" fill="#2F2F2F"/>
<circle cx="13.5" cy="18.5" r="13" fill="#FFF800"/>
<circle cx="26.5" cy="18.5" r="13" fill="#FF0000" style="mix-blend-mode:multiply"/>
<circle cx="40.5" cy="18.5" r="13" fill="#2F2F2F" style="mix-blend-mode:multiply"/>
</svg>
