<svg width="187" height="180" viewBox="0 0 187 180" fill="none" xmlns="http://www.w3.org/2000/svg">
<path fill-rule="evenodd" clip-rule="evenodd" d="M93.4999 15C130.23 15 148.595 15 160.006 25.9835C163.932 29.7625 166.507 34.334 168.196 40.1452L41.7064 161.9C35.6691 160.274 30.9199 157.796 26.9939 154.017C15.5833 143.033 15.5833 125.355 15.5833 90C15.5833 54.6447 15.5833 36.967 26.9939 25.9835C38.4045 15 56.7697 15 93.4999 15ZM42.8541 65.6799C42.8541 79.0664 51.558 94.6872 65.138 100.273C68.3037 101.576 71.9461 101.576 75.1119 100.273C88.6918 94.6872 97.3958 79.0664 97.3958 65.6799C97.3958 52.1876 85.1862 41.25 70.1249 41.25C55.0637 41.25 42.8541 52.1876 42.8541 65.6799Z" fill="#FB4C4C"/>
<path d="M81.8124 67.5C81.8124 73.7132 76.5798 78.75 70.1249 78.75C63.6701 78.75 58.4374 73.7132 58.4374 67.5C58.4374 61.2868 63.6701 56.25 70.1249 56.25C76.5798 56.25 81.8124 61.2868 81.8124 67.5Z" fill="#FB4C4C"/>
<path d="M160.006 25.9835L161.74 24.1823V24.1823L160.006 25.9835ZM26.9939 25.9835L25.2601 24.1823L26.9939 25.9835ZM26.9939 154.017L25.2602 155.818H25.2602L26.9939 154.017ZM168.196 40.1452L169.93 41.9464L171.019 40.8985L170.597 39.4475L168.196 40.1452ZM41.7064 161.9L41.0562 164.314L42.4215 164.682L43.4401 163.701L41.7064 161.9ZM75.1119 100.273L76.0629 102.585L75.1119 100.273ZM65.138 100.273L64.187 102.585L65.138 100.273ZM93.4999 17.5C111.933 17.5 125.516 17.5049 135.927 18.8523C146.276 20.1915 153.112 22.8176 158.272 27.7846L161.74 24.1823C155.489 18.1659 147.438 15.3002 136.569 13.8936C125.762 12.4951 111.797 12.5 93.4999 12.5V17.5ZM18.0833 90C18.0833 72.249 18.089 59.1969 19.4855 49.1981C20.8707 39.2814 23.5808 32.7388 28.7276 27.7847L25.2601 24.1823C18.9964 30.2117 16.0012 37.9997 14.5336 48.5065C13.0775 58.9313 13.0833 72.3957 13.0833 90H18.0833ZM93.4999 12.5C75.2029 12.5 61.2379 12.4951 50.4312 13.8936C39.562 15.3002 31.5106 18.1659 25.2601 24.1823L28.7276 27.7847C33.8878 22.8176 40.7243 20.1915 51.0729 18.8523C61.484 17.5049 75.0667 17.5 93.4999 17.5V12.5ZM13.0833 90C13.0833 107.604 13.0775 121.069 14.5336 131.494C16.0012 142 18.9964 149.788 25.2602 155.818L28.7276 152.215C23.5808 147.261 20.8707 140.719 19.4855 130.802C18.089 120.803 18.0833 107.751 18.0833 90H13.0833ZM170.597 39.4475C168.808 33.2926 166.033 28.3151 161.74 24.1823L158.272 27.7846C161.831 31.2099 164.206 35.3754 165.796 40.843L170.597 39.4475ZM42.3565 159.486C36.6377 157.946 32.2899 155.644 28.7276 152.215L25.2602 155.818C29.5498 159.947 34.7005 162.603 41.0562 164.314L42.3565 159.486ZM166.463 38.3441L39.9726 160.099L43.4401 163.701L169.93 41.9464L166.463 38.3441ZM74.1608 97.9613C71.6043 99.0129 68.6455 99.0129 66.0891 97.9613L64.187 102.585C67.9619 104.138 72.2879 104.138 76.0629 102.585L74.1608 97.9613ZM40.3541 65.6799C40.3541 79.9257 49.535 96.5583 64.187 102.585L66.0891 97.9613C53.581 92.8161 45.3541 78.2071 45.3541 65.6799H40.3541ZM94.8958 65.6799C94.8958 78.2071 86.6689 92.8161 74.1608 97.9613L76.0629 102.585C90.7148 96.5583 99.8958 79.9257 99.8958 65.6799H94.8958ZM70.1249 43.75C84.0712 43.75 94.8958 53.8199 94.8958 65.6799H99.8958C99.8958 50.5554 86.3012 38.75 70.1249 38.75V43.75ZM70.1249 38.75C53.9487 38.75 40.3541 50.5554 40.3541 65.6799H45.3541C45.3541 53.8199 56.1786 43.75 70.1249 43.75V38.75ZM79.3124 67.5C79.3124 72.2435 75.2898 76.25 70.1249 76.25V81.25C77.8697 81.25 84.3124 75.183 84.3124 67.5H79.3124ZM70.1249 76.25C64.9601 76.25 60.9374 72.2435 60.9374 67.5H55.9374C55.9374 75.183 62.3801 81.25 70.1249 81.25V76.25ZM60.9374 67.5C60.9374 62.7565 64.9601 58.75 70.1249 58.75V53.75C62.3801 53.75 55.9374 59.817 55.9374 67.5H60.9374ZM70.1249 58.75C75.2898 58.75 79.3124 62.7565 79.3124 67.5H84.3124C84.3124 59.817 77.8697 53.75 70.1249 53.75V58.75Z" fill="black"/>
<path d="M170.554 53.7891C171.418 63.2503 171.418 75.044 171.418 90.0017C171.418 121.004 171.418 138.414 163.725 149.636L117.353 105L170.554 53.7891Z" fill="white"/>
<path d="M155.461 157.592L109.088 112.955L55.8809 164.17C65.7101 165.002 77.9623 165.002 93.5016 165.002C125.715 165.002 143.802 165.002 155.461 157.592Z" fill="#F2EF8A"/>
<path d="M170.554 53.7891L173.044 53.5617L172.57 48.3782L168.82 51.9879L170.554 53.7891ZM117.353 105L115.619 103.199L113.748 105L115.619 106.801L117.353 105ZM163.725 149.636L161.991 151.438L164.118 153.485L165.787 151.05L163.725 149.636ZM109.088 112.955L110.822 111.154L109.088 109.485L107.355 111.154L109.088 112.955ZM155.461 157.592L156.802 159.702L159.486 157.997L157.195 155.791L155.461 157.592ZM55.8809 164.17L54.1471 162.369L50.1712 166.196L55.6701 166.661L55.8809 164.17ZM173.918 90.0017C173.918 75.0877 173.921 63.1624 173.044 53.5617L168.065 54.0164C168.916 63.3383 168.918 75.0002 168.918 90.0017H173.918ZM119.086 106.801L172.288 55.5902L168.82 51.9879L115.619 103.199L119.086 106.801ZM165.458 147.835L119.086 103.199L115.619 106.801L161.991 151.438L165.458 147.835ZM168.918 90.0017C168.918 105.552 168.915 117.51 167.969 126.988C167.024 136.453 165.161 143.12 161.663 148.223L165.787 151.05C169.982 144.93 171.966 137.281 172.944 127.485C173.921 117.702 173.918 105.454 173.918 90.0017H168.918ZM107.355 114.756L153.728 159.393L157.195 155.791L110.822 111.154L107.355 114.756ZM93.5016 167.502C109.563 167.502 122.272 167.504 132.42 166.565C142.573 165.625 150.477 163.722 156.802 159.702L154.12 155.482C148.787 158.872 141.818 160.674 131.959 161.586C122.095 162.499 109.654 162.502 93.5016 162.502V167.502ZM57.6146 165.971L110.822 114.756L107.355 111.154L54.1471 162.369L57.6146 165.971ZM93.5016 162.502C77.9217 162.502 65.7915 162.5 56.0916 161.679L55.6701 166.661C65.6286 167.504 78.0029 167.502 93.5016 167.502V162.502Z" fill="black"/>
</svg>
