<svg width="208" height="168" viewBox="0 0 208 168" fill="none" xmlns="http://www.w3.org/2000/svg">
<path fill-rule="evenodd" clip-rule="evenodd" d="M148.844 77.3184H34.3486V112.029C34.3486 131.664 34.3486 141.482 42.7324 147.582C51.1161 153.682 64.6095 153.682 91.5963 153.682H129.761C156.748 153.682 170.242 153.682 178.625 147.582C187.009 141.482 187.009 131.664 187.009 112.029V105.087C187.009 91.9967 187.009 85.4516 181.42 81.385C175.831 77.3184 166.835 77.3184 148.844 77.3184Z" fill="#FB4C4C" stroke="black" stroke-width="5"/>
<path d="M125.783 57.6688L131.612 22.3393L85.8774 31.1981L85.4799 33.194L79.6153 68.7402L125.427 59.8666L125.783 57.6688Z" fill="#FB4C4C"/>
<path d="M30.3056 52.8611C28.2857 58.3105 30.6341 64.6463 35.3311 77.3181L64.4489 71.678L64.828 69.4758L70.6568 34.1463L69.6559 34.3402C52.1267 37.7356 43.3622 39.4332 37.8438 43.4225C34.2287 46.0359 31.6288 49.2911 30.3056 52.8611Z" fill="#FB4C4C"/>
<path d="M173.652 50.5253L140.57 56.9332L146.435 21.387L146.971 19.4761C148.222 19.2957 149.292 19.1844 150.311 19.1361C162.066 18.5792 173.127 23.1959 178.338 30.8336C179.606 32.6934 180.482 35.0559 182.233 39.7808C182.817 41.3558 183.109 42.1433 183.172 42.833C183.428 45.6656 181.3 48.3311 177.778 49.5865C176.92 49.8923 175.831 50.1033 173.652 50.5253Z" fill="#FB4C4C"/>
<path d="M125.783 57.6688L131.612 22.3393L85.8774 31.1981L85.4799 33.194L79.6153 68.7402L125.427 59.8666L125.783 57.6688Z" stroke="black" stroke-width="5"/>
<path d="M30.3056 52.8611C28.2857 58.3105 30.6341 64.6463 35.3311 77.3181L64.4489 71.678L64.828 69.4758L70.6568 34.1463L69.6559 34.3402C52.1267 37.7356 43.3622 39.4332 37.8438 43.4225C34.2287 46.0359 31.6288 49.2911 30.3056 52.8611Z" stroke="black" stroke-width="5"/>
<path d="M173.652 50.5253L140.57 56.9332L146.435 21.387L146.971 19.4761C148.222 19.2957 149.292 19.1844 150.311 19.1361C162.066 18.5792 173.127 23.1959 178.338 30.8336C179.606 32.6934 180.482 35.0559 182.233 39.7808C182.817 41.3558 183.109 42.1433 183.172 42.833C183.428 45.6656 181.3 48.3311 177.778 49.5865C176.92 49.8923 175.831 50.1033 173.652 50.5253Z" stroke="black" stroke-width="5"/>
<path d="M129.046 117.296L131.825 115.592L129.046 113.887L102.796 97.7859L99.75 95.9178L99.75 99.4908L99.75 131.692L99.75 135.265L102.796 133.397L129.046 117.296Z" fill="#F2EF8A" stroke="black" stroke-width="4"/>
</svg>
